#!OML:ASF H:\BabyWalks\Project 1\Capture day 1\Session 1\baby.ASF
:FULLY-SPECIFIED
:DEGREES
365
root 0.544812 17.1485 -21.8375 -0.456656 71.6196 -2.63304
lowerback 22.0861 0.796331 -8.80717
upperback 7.31246 -0.569266 -4.13301
thorax -4.21244 -0.0839355 0.668228
lowerneck -4.21388 -6.40574 -1.10796
upperneck -1.51032 -8.51273 14.0179
head 1.00478 -4.1046 4.60838
rclavicle 5.56597e-015 -3.33958e-014
rhumerus -57.8703 14.5318 -92.5339
rradius 46.7382
rwrist -6.65207
rhand -16.7418 -16.6699
rfingers 7.12502
rthumb 9.48446 -46.4364
lclavicle 5.56597e-015 -3.33958e-014
lhumerus -45.9163 -15.2069 72.1741
lradius 44.1909
lwrist -12.3562
lhand 0.161637 1.32207
lfingers 7.12502
lthumb 25.7452 29.6005
rfemur -17.9274 10.0036 16.8479
rtibia 70.5544
rfoot -11.6224 18.6811
rtoes -13.988
lfemur -18.7151 3.62731 -10.7649
ltibia 43.8064
lfoot -29.667 -20.6083
ltoes 3.84737
366
root 0.656589 17.1507 -21.8207 0.179465 71.9095 -2.21106
lowerback 22.2524 0.530528 -8.92263
upperback 7.30514 -0.955795 -4.16344
thorax -4.27342 -0.268566 0.795891
lowerneck -4.15961 -6.31409 -1.18696
upperneck -1.60703 -8.37397 14.0339
head 0.956626 -4.04208 4.63828
rclavicle -1.03368e-014 -1.11319e-014
rhumerus -58.0767 14.489 -92.6068
rradius 46.0217
rwrist -6.17276
rhand -15.8652 -16.7683
rfingers 7.12502
rthumb 10.3302 -46.4946
lclavicle -1.03368e-014 -1.11319e-014
lhumerus -43.5853 -14.5604 70.7762
lradius 44.3966
lwrist -13.0445
lhand -0.783485 1.37936
lfingers 7.12502
lthumb 24.8397 29.7858
rfemur -19.4955 9.12307 16.699
rtibia 71.2649
rfoot -11.9347 19.3242
rtoes -14.5765
lfemur -18.5852 3.66541 -10.9597
ltibia 43.708
lfoot -29.8151 -21.0996
ltoes 4.23678
367
root 0.767152 17.156 -21.8011 0.749299 72.2291 -1.8675
lowerback 22.4244 0.26558 -9.0023
upperback 7.29109 -1.33481 -4.17356
thorax -4.34465 -0.449136 0.924792
lowerneck -4.12231 -6.23355 -1.25253
upperneck -1.67315 -8.25482 14.0447
head 0.92208 -3.98735 4.66191
rclavicle 2.22639e-014 -1.59028e-014
rhumerus -58.3275 14.488 -92.7
rradius 45.3602
rwrist -5.7053
rhand -14.9408 -16.8413
rfingers 7.12502
rthumb 11.2218 -46.5212
lclavicle 2.22639e-014 -1.59028e-014
lhumerus -41.2286 -13.8418 69.4371
lradius 44.7365
lwrist -13.5083
lhand -1.37895 1.55758
lfingers 7.12502
lthumb 24.2689 30.0415
rfemur -21.0214 8.2644 16.634
rtibia 71.703
rfoot -12.2899 19.7755
rtoes -14.9998
lfemur -18.4476 3.66349 -11.1145
ltibia 43.551
lfoot -29.9269 -21.5721
ltoes 4.60434
368
root 0.877022 17.1646 -21.7788 1.28215 72.5626 -1.56094
lowerback 22.6012 0.00592818 -9.06804
upperback 7.27609 -1.70401 -4.16427
thorax -4.41876 -0.624828 1.06568
lowerneck -4.10872 -6.16085 -1.31187
upperneck -1.70803 -8.15089 14.0504
head 0.902615 -3.93796 4.68064
rclavicle -6.99722e-014 -1.59028e-014
rhumerus -58.6135 14.5371 -92.8056
rradius 44.757
rwrist -5.20857
rhand -13.9824 -16.8483
rfingers 7.12502
rthumb 12.146 -46.4757
lclavicle -6.99722e-014 -1.59028e-014
lhumerus -38.8642 -13.0835 68.2004
lradius 45.216
lwrist -13.6868
lhand -1.76572 1.78018
lfingers 7.12502
lthumb 23.8981 30.3132
rfemur -22.4952 7.45851 16.6333
rtibia 71.8793
rfoot -12.7126 19.9659
rtoes -15.2996
lfemur -18.2756 3.62627 -11.2441
ltibia 43.3221
lfoot -30.0053 -22.0077
ltoes 4.92747
369
root 0.986561 17.1765 -21.7538 1.80958 72.8935 -1.25728
lowerback 22.7788 -0.242641 -9.12842
upperback 7.26011 -2.05748 -4.14284
thorax -4.494 -0.792738 1.21397
lowerneck -4.11112 -6.09658 -1.35673
upperneck -1.72659 -8.06117 14.0474
head 0.891308 -3.89444 4.69205
rclavicle 3.18055e-015 -3.02153e-014
rhumerus -58.9305 14.6185 -92.9193
rradius 44.2147
rwrist -4.6667
rhand -13.0119 -16.7329
rfingers 7.12502
rthumb 13.0817 -46.3026
lclavicle 3.18055e-015 -3.02153e-014
lhumerus -36.4953 -12.3283 67.0802
lradius 45.8103
lwrist -13.5825
lhand -2.06686 2.05415
lfingers 7.12502
lthumb 23.6093 30.6247
rfemur -23.9138 6.73014 16.6782
rtibia 71.7998
rfoot -13.2102 19.8809
rtoes -15.4794
lfemur -18.0561 3.55942 -11.362
ltibia 43.0098
lfoot -30.0508 -22.3918
ltoes 5.21225
370
root 1.09621 17.192 -21.7261 2.36682 73.2148 -0.91954
lowerback 22.9567 -0.476938 -9.19567
upperback 7.24076 -2.39407 -4.11146
thorax -4.5722 -0.952215 1.3738
lowerneck -4.13414 -6.0395 -1.39153
upperneck -1.7249 -7.98441 14.0348
head 0.890383 -3.85582 4.69655
rclavicle 7.95139e-015 0
rhumerus -59.2757 14.7254 -93.035
rradius 43.7336
rwrist -4.07479
rhand -12.0558 -16.4614
rfingers 7.12502
rthumb 14.0032 -45.9697
lclavicle 7.95139e-015 0
lhumerus -34.1591 -11.6251 66.0878
lradius 46.5346
lwrist -13.2122
lhand -2.40035 2.32904
lfingers 7.12502
lthumb 23.2894 30.9405
rfemur -25.2718 6.09399 16.747
rtibia 71.4679
rfoot -13.7694 19.5522
rtoes -15.5591
lfemur -17.7792 3.46438 -11.4817
ltibia 42.6038
lfoot -30.0631 -22.7124
ltoes 5.45161
371
root 1.20644 17.2112 -21.6957 2.9494 73.5194 -0.558334
lowerback 23.1212 -0.69637 -9.26434
upperback 7.21788 -2.71043 -4.06938
thorax -4.647 -1.10203 1.54176
lowerneck -4.15667 -5.99048 -1.41061
upperneck -1.72496 -7.91884 13.9994
head 0.887747 -3.82321 4.68926
rclavicle -4.45278e-014 3.33958e-014
rhumerus -59.6456 14.8427 -93.1423
rradius 43.3148
rwrist -3.41521
rhand -11.1401 -16.0222
rfingers 7.12502
rthumb 14.8856 -45.4674
lclavicle -4.45278e-014 3.33958e-014
lhumerus -31.9153 -11.0066 65.2197
lradius 47.4431
lwrist -12.6296
lhand -2.34884 2.71668
lfingers 7.12502
lthumb 23.3388 31.3218
rfemur -26.5697 5.56514 16.8304
rtibia 70.8855
rfoot -14.3462 19.0469
rtoes -15.4991
lfemur -17.4445 3.33774 -11.6015
ltibia 42.0989
lfoot -30.0382 -22.9538
ltoes 5.64589
372
root 1.31777 17.234 -21.6627 3.56346 73.806 -0.163307
lowerback 23.2754 -0.902279 -9.34499
upperback 7.19092 -3.01082 -4.01135
thorax -4.71917 -1.24434 1.7304
lowerneck -4.18765 -5.94323 -1.42775
upperneck -1.71776 -7.85681 13.9415
head 0.888006 -3.79204 4.67285
rclavicle -6.44062e-014 7.4743e-014
rhumerus -60.0416 14.9944 -93.2441
rradius 42.9663
rwrist -2.72551
rhand -10.2869 -15.4445
rfingers 7.12502
rthumb 15.7074 -44.827
lclavicle -6.44062e-014 7.4743e-014
lhumerus -29.7686 -10.487 64.468
lradius 48.4937
lwrist -11.895
lhand -3.09901 2.88586
lfingers 7.12502
lthumb 22.6189 31.5806
rfemur -27.7943 5.15039 16.9148
rtibia 70.0549
rfoot -14.9152 18.4295
rtoes -15.328
lfemur -17.0427 3.1793 -11.7244
ltibia 41.4913
lfoot -29.9795 -23.1133
ltoes 5.77599
373
root 1.43064 17.2605 -21.627 4.19691 74.0769 0.246014
lowerback 23.4097 -1.09791 -9.43029
upperback 7.15986 -3.29673 -3.93469
thorax -4.78391 -1.38022 1.9385
lowerneck -4.21259 -5.89601 -1.44505
upperneck -1.72791 -7.79257 13.8624
head 0.880227 -3.761 4.64927
rclavicle 4.45278e-014 5.725e-014
rhumerus -60.4481 15.1691 -93.3285
rradius 42.686
rwrist -2.01436
rhand -9.4992 -14.7889
rfingers 7.12502
rthumb 16.4659 -44.1102
lclavicle 4.45278e-014 5.725e-014
lhumerus -27.7349 -10.0773 63.8126
lradius 49.6836
lwrist -11.0847
lhand -3.70871 3.11643
lfingers 7.12502
lthumb 22.0337 31.8813
rfemur -28.9441 4.85393 16.992
rtibia 68.9793
rfoot -15.4392 17.776
rtoes -15.0429
lfemur -16.5803 2.98617 -11.8448
ltibia 40.7818
lfoot -29.8871 -23.1914
ltoes 5.84194
